<svg width="315" height="184" viewBox="0 0 315 184" fill="none" xmlns="http://www.w3.org/2000/svg">
<rect width="315" height="184" rx="30" fill="#F4511E"/>
<mask id="mask0" mask-type="alpha" maskUnits="userSpaceOnUse" x="0" y="0" width="315" height="184">
<rect width="315" height="184" rx="30" fill="#ED713C"/>
</mask>
<g mask="url(#mask0)">
<ellipse opacity="0.1" cx="24.5" cy="213" rx="160.5" ry="113" fill="#F4511E"/>
<ellipse opacity="0.08" cx="290.5" cy="-29" rx="160.5" ry="113" fill="#F4511E"/>
</g>
<path d="M247.178 160.169C249.53 160.169 250.907 158.25 250.907 154.914C250.907 151.603 249.51 149.679 247.178 149.679C244.842 149.679 243.45 151.598 243.445 154.914C243.445 158.245 244.822 160.164 247.178 160.169ZM247.178 158.842C245.801 158.842 244.971 157.46 244.971 154.914C244.976 152.379 245.806 150.982 247.178 150.982C248.546 150.982 249.381 152.379 249.381 154.914C249.381 157.46 248.551 158.842 247.178 158.842ZM256.556 149.654C254.419 149.639 253.022 151.17 253.022 153.119C253.022 155.068 254.434 156.47 256.199 156.47C257.277 156.47 258.202 155.943 258.724 155.088H258.804C258.799 157.43 257.919 158.797 256.427 158.797C255.453 158.797 254.826 158.2 254.627 157.33H253.111C253.335 158.976 254.608 160.139 256.427 160.139C258.794 160.139 260.27 158.106 260.275 154.541C260.27 150.798 258.371 149.669 256.556 149.654ZM256.561 150.947C257.74 150.947 258.61 151.946 258.61 153.085C258.61 154.223 257.695 155.217 256.532 155.217C255.363 155.217 254.513 154.283 254.513 153.099C254.513 151.896 255.393 150.947 256.561 150.947ZM266.469 149.341H265.142L261.86 161.531H263.188L266.469 149.341ZM268.212 160H274.914V158.683H270.33V158.608L272.353 156.49C274.218 154.606 274.749 153.706 274.749 152.567C274.749 150.932 273.417 149.679 271.498 149.679C269.594 149.679 268.202 150.912 268.202 152.771H269.669C269.664 151.678 270.369 150.962 271.468 150.962C272.502 150.962 273.288 151.598 273.288 152.612C273.288 153.512 272.751 154.158 271.657 155.317L268.212 158.886V160ZM280.659 160.139C282.707 160.139 284.169 158.692 284.164 156.709C284.169 154.74 282.796 153.308 280.942 153.308C280.186 153.308 279.485 153.597 279.088 153.984H279.028L279.351 151.136H283.671V149.818H278.073L277.502 154.949L278.909 155.158C279.291 154.815 279.977 154.581 280.594 154.581C281.802 154.591 282.677 155.496 282.677 156.739C282.677 157.962 281.827 158.847 280.659 158.847C279.674 158.847 278.894 158.22 278.814 157.345H277.323C277.382 158.966 278.789 160.139 280.659 160.139Z" fill="white"/>
<path opacity="0.9" d="M34.3402 160.139C36.3885 160.139 37.8501 158.692 37.8452 156.709C37.8501 154.74 36.478 153.308 34.6236 153.308C33.8679 153.308 33.1669 153.597 32.7692 153.984H32.7095L33.0327 151.136H37.353V149.818H31.755L31.1832 154.949L32.5902 155.158C32.973 154.815 33.6591 154.581 34.2756 154.581C35.4837 154.591 36.3587 155.496 36.3587 156.739C36.3587 157.962 35.5085 158.847 34.3402 158.847C33.3558 158.847 32.5753 158.22 32.4957 157.345H31.0043C31.0639 158.966 32.4709 160.139 34.3402 160.139ZM40.161 160H46.8627V158.683H42.2789V158.608L44.3024 156.49C46.1667 154.606 46.6987 153.706 46.6987 152.567C46.6987 150.932 45.3663 149.679 43.4473 149.679C41.5431 149.679 40.1511 150.912 40.1511 152.771H41.6177C41.6127 151.678 42.3187 150.962 43.4174 150.962C44.4515 150.962 45.237 151.598 45.237 152.612C45.237 153.512 44.7001 154.158 43.6064 155.317L40.161 158.886V160ZM52.6873 160.139C54.8052 160.139 56.3017 158.936 56.3116 157.286C56.3017 156.003 55.4018 154.924 54.2633 154.72V154.661C55.2527 154.422 55.9238 153.492 55.9338 152.393C55.9238 150.837 54.5517 149.679 52.6873 149.679C50.8031 149.679 49.4309 150.837 49.4409 152.393C49.4309 153.487 50.1021 154.422 51.1113 154.661V154.72C49.9529 154.924 49.0531 156.003 49.063 157.286C49.0531 158.936 50.5495 160.139 52.6873 160.139ZM52.6873 158.881C51.4146 158.881 50.6092 158.205 50.6191 157.186C50.6092 156.127 51.4842 155.371 52.6873 155.371C53.8706 155.371 54.7456 156.127 54.7555 157.186C54.7456 158.205 53.9451 158.881 52.6873 158.881ZM52.6873 154.143C51.6582 154.143 50.9274 153.492 50.9373 152.523C50.9274 151.568 51.6333 150.937 52.6873 150.937C53.7214 150.937 54.4274 151.568 54.4373 152.523C54.4274 153.492 53.7015 154.143 52.6873 154.143ZM58.5927 160H65.2944V158.683H60.7106V158.608L62.734 156.49C64.5984 154.606 65.1303 153.706 65.1303 152.567C65.1303 150.932 63.7979 149.679 61.8789 149.679C59.9748 149.679 58.5827 150.912 58.5827 152.771H60.0494C60.0444 151.678 60.7504 150.962 61.8491 150.962C62.8832 150.962 63.6687 151.598 63.6687 152.612C63.6687 153.512 63.1317 154.158 62.038 155.317L58.5927 158.886V160ZM75.4284 160.139C77.5066 160.139 79.0328 158.896 79.0279 157.206C79.0328 155.918 78.2523 154.994 76.9 154.785V154.705C77.964 154.432 78.655 153.597 78.65 152.453C78.655 150.957 77.427 149.679 75.4682 149.679C73.5989 149.679 72.0975 150.808 72.0478 152.463H73.5343C73.5691 151.528 74.449 150.962 75.4483 150.962C76.4874 150.962 77.1685 151.593 77.1635 152.533C77.1685 153.517 76.378 154.163 75.2495 154.163H74.3894V155.416H75.2495C76.6614 155.416 77.4767 156.132 77.4767 157.156C77.4767 158.146 76.6167 158.817 75.4185 158.817C74.3148 158.817 73.4547 158.25 73.3951 157.345H71.834C71.8986 159.006 73.3702 160.139 75.4284 160.139ZM81.1934 158.011H86.0208V160H87.4874V158.011H88.8347V156.709H87.4874V149.818H85.5932L81.1934 156.768V158.011ZM86.0307 156.709H82.8042V156.629L85.9512 151.648H86.0307V156.709ZM94.4281 160.139C96.4764 160.139 97.938 158.692 97.9331 156.709C97.938 154.74 96.5659 153.308 94.7115 153.308C93.9558 153.308 93.2548 153.597 92.8571 153.984H92.7974L93.1206 151.136H97.4409V149.818H91.8429L91.2711 154.949L92.6781 155.158C93.0609 154.815 93.747 154.581 94.3635 154.581C95.5716 154.591 96.4466 155.496 96.4466 156.739C96.4466 157.962 95.5964 158.847 94.4281 158.847C93.4437 158.847 92.6632 158.22 92.5836 157.345H91.0922C91.1518 158.966 92.5588 160.139 94.4281 160.139ZM103.804 160.139C105.931 160.159 107.343 158.628 107.338 156.674C107.343 154.725 105.926 153.328 104.162 153.328C103.088 153.328 102.158 153.845 101.636 154.705H101.561C101.566 152.369 102.441 151.001 103.933 151.001C104.912 151.001 105.529 151.593 105.738 152.463H107.254C107.02 150.827 105.752 149.654 103.933 149.654C101.566 149.654 100.09 151.688 100.09 155.252C100.09 159.001 101.994 160.124 103.804 160.139ZM103.799 158.847C102.615 158.847 101.75 157.852 101.75 156.709C101.755 155.57 102.66 154.576 103.833 154.576C104.997 154.576 105.852 155.516 105.847 156.694C105.852 157.897 104.962 158.847 103.799 158.847ZM114.197 160H115.803L120.233 151.18V149.818H113.501V151.136H118.642V151.21L114.197 160ZM125.697 160.139C127.815 160.139 129.311 158.936 129.321 157.286C129.311 156.003 128.412 154.924 127.273 154.72V154.661C128.262 154.422 128.934 153.492 128.944 152.393C128.934 150.837 127.561 149.679 125.697 149.679C123.813 149.679 122.441 150.837 122.451 152.393C122.441 153.487 123.112 154.422 124.121 154.661V154.72C122.963 154.924 122.063 156.003 122.073 157.286C122.063 158.936 123.559 160.139 125.697 160.139ZM125.697 158.881C124.424 158.881 123.619 158.205 123.629 157.186C123.619 156.127 124.494 155.371 125.697 155.371C126.88 155.371 127.755 156.127 127.765 157.186C127.755 158.205 126.955 158.881 125.697 158.881ZM125.697 154.143C124.668 154.143 123.937 153.492 123.947 152.523C123.937 151.568 124.643 150.937 125.697 150.937C126.731 150.937 127.437 151.568 127.447 152.523C127.437 153.492 126.711 154.143 125.697 154.143ZM134.988 149.654C132.85 149.639 131.453 151.17 131.453 153.119C131.453 155.068 132.865 156.47 134.63 156.47C135.709 156.47 136.634 155.943 137.156 155.088H137.235C137.23 157.43 136.35 158.797 134.859 158.797C133.884 158.797 133.258 158.2 133.059 157.33H131.543C131.767 158.976 133.039 160.139 134.859 160.139C137.225 160.139 138.702 158.106 138.707 154.541C138.702 150.798 136.803 149.669 134.988 149.654ZM134.993 150.947C136.171 150.947 137.041 151.946 137.041 153.085C137.041 154.223 136.127 155.217 134.963 155.217C133.795 155.217 132.945 154.283 132.945 153.099C132.945 151.896 133.825 150.947 134.993 150.947ZM144.548 160.169C146.899 160.169 148.276 158.25 148.276 154.914C148.276 151.603 146.879 149.679 144.548 149.679C142.211 149.679 140.819 151.598 140.814 154.914C140.814 158.245 142.191 160.164 144.548 160.169ZM144.548 158.842C143.17 158.842 142.34 157.46 142.34 154.914C142.345 152.379 143.175 150.982 144.548 150.982C145.915 150.982 146.75 152.379 146.75 154.914C146.75 157.46 145.92 158.842 144.548 158.842ZM158.608 149.818H157.112L154.571 151.479V152.95L157.007 151.359H157.067V160H158.608V149.818ZM161.862 160H168.564V158.683H163.98V158.608L166.004 156.49C167.868 154.606 168.4 153.706 168.4 152.567C168.4 150.932 167.067 149.679 165.148 149.679C163.244 149.679 161.852 150.912 161.852 152.771H163.319C163.314 151.678 164.02 150.962 165.119 150.962C166.153 150.962 166.938 151.598 166.938 152.612C166.938 153.512 166.401 154.158 165.308 155.317L161.862 158.886V160ZM174.388 160.139C176.506 160.139 178.003 158.936 178.013 157.286C178.003 156.003 177.103 154.924 175.964 154.72V154.661C176.954 154.422 177.625 153.492 177.635 152.393C177.625 150.837 176.253 149.679 174.388 149.679C172.504 149.679 171.132 150.837 171.142 152.393C171.132 153.487 171.803 154.422 172.812 154.661V154.72C171.654 154.924 170.754 156.003 170.764 157.286C170.754 158.936 172.251 160.139 174.388 160.139ZM174.388 158.881C173.116 158.881 172.31 158.205 172.32 157.186C172.31 156.127 173.185 155.371 174.388 155.371C175.572 155.371 176.447 156.127 176.457 157.186C176.447 158.205 175.646 158.881 174.388 158.881ZM174.388 154.143C173.359 154.143 172.629 153.492 172.638 152.523C172.629 151.568 173.335 150.937 174.388 150.937C175.423 150.937 176.129 151.568 176.138 152.523C176.129 153.492 175.403 154.143 174.388 154.143ZM183.68 149.654C181.542 149.639 180.145 151.17 180.145 153.119C180.145 155.068 181.557 156.47 183.322 156.47C184.4 156.47 185.325 155.943 185.847 155.088H185.927C185.922 157.43 185.042 158.797 183.55 158.797C182.576 158.797 181.949 158.2 181.751 157.33H180.234C180.458 158.976 181.731 160.139 183.55 160.139C185.917 160.139 187.393 158.106 187.398 154.541C187.393 150.798 185.494 149.669 183.68 149.654ZM183.684 150.947C184.863 150.947 185.733 151.946 185.733 153.085C185.733 154.223 184.818 155.217 183.655 155.217C182.486 155.217 181.636 154.283 181.636 153.099C181.636 151.896 182.516 150.947 183.684 150.947Z" fill="white"/>
<path d="M256.417 27.9742H268.584V49.8367H256.417V27.9742Z" fill="#FF5F00"/>
<path d="M248.189 60.8409V58.5234C248.189 57.6348 247.648 57.0556 246.721 57.0556C246.258 57.0556 245.756 57.2101 245.408 57.7123C245.138 57.2873 244.751 57.0556 244.172 57.0556C243.786 57.0556 243.4 57.1714 243.09 57.5963V57.1328H242.279V60.8409H243.09V58.7937C243.09 58.1372 243.438 57.828 243.979 57.828C244.52 57.828 244.79 58.1757 244.79 58.7937V60.8409H245.601V58.7937C245.601 58.1372 245.987 57.828 246.49 57.828C247.03 57.828 247.301 58.1757 247.301 58.7937V60.8409H248.189ZM260.202 57.1328H258.889V56.0127H258.078V57.1328H257.344V57.8666H258.077V59.5663C258.077 60.4162 258.425 60.9182 259.352 60.9182C259.7 60.9182 260.086 60.8024 260.357 60.6479L260.125 59.9525C259.893 60.107 259.623 60.1457 259.429 60.1457C259.043 60.1457 258.889 59.914 258.889 59.5276V57.8666H260.202V57.1328ZM267.077 57.0554C266.614 57.0554 266.305 57.2873 266.112 57.5963V57.1328H265.301V60.8409H266.112V58.7551C266.112 58.1372 266.382 57.7895 266.884 57.7895C267.039 57.7895 267.232 57.8282 267.386 57.8668L267.618 57.0943C267.464 57.0556 267.232 57.0556 267.077 57.0556V57.0554ZM256.687 57.4418C256.301 57.1714 255.76 57.0556 255.18 57.0556C254.254 57.0556 253.636 57.5191 253.636 58.253C253.636 58.8711 254.099 59.2186 254.91 59.3346L255.296 59.3733C255.721 59.4503 255.953 59.5663 255.953 59.7595C255.953 60.0298 255.644 60.223 255.103 60.223C254.562 60.223 254.138 60.0298 253.867 59.8367L253.481 60.4547C253.906 60.7637 254.485 60.9182 255.064 60.9182C256.146 60.9182 256.764 60.4162 256.764 59.7208C256.764 59.0641 256.262 58.7164 255.489 58.6007L255.103 58.562C254.756 58.5232 254.485 58.4462 254.485 58.2144C254.485 57.944 254.756 57.7895 255.18 57.7895C255.644 57.7895 256.108 57.9825 256.339 58.0985L256.687 57.4418ZM278.241 57.0556C277.777 57.0556 277.468 57.2873 277.275 57.5963V57.1328H276.464V60.8409H277.275V58.7551C277.275 58.1372 277.545 57.7895 278.047 57.7895C278.202 57.7895 278.395 57.8282 278.549 57.8668L278.781 57.0943C278.627 57.0556 278.395 57.0556 278.241 57.0556ZM267.889 58.9869C267.889 60.107 268.661 60.9182 269.859 60.9182C270.399 60.9182 270.785 60.8024 271.172 60.4934L270.785 59.8367C270.477 60.0685 270.168 60.1843 269.82 60.1843C269.163 60.1843 268.7 59.7208 268.7 58.9869C268.7 58.2917 269.163 57.828 269.82 57.7895C270.168 57.7895 270.477 57.9053 270.785 58.1372L271.172 57.4805C270.785 57.1714 270.399 57.0556 269.859 57.0556C268.661 57.0556 267.889 57.8668 267.889 58.9869ZM275.382 58.9869V57.1328H274.571V57.5963C274.301 57.2488 273.914 57.0556 273.412 57.0556C272.369 57.0556 271.558 57.8668 271.558 58.9869C271.558 60.107 272.369 60.9182 273.412 60.9182C273.953 60.9182 274.339 60.7251 274.571 60.3774V60.8409H275.382V58.9869ZM272.408 58.9869C272.408 58.3302 272.833 57.7895 273.528 57.7895C274.185 57.7895 274.648 58.2917 274.648 58.9869C274.648 59.6435 274.185 60.1843 273.528 60.1843C272.833 60.1455 272.408 59.6435 272.408 58.9869ZM262.713 57.0556C261.631 57.0556 260.858 57.828 260.858 58.9869C260.858 60.1457 261.631 60.9182 262.751 60.9182C263.292 60.9182 263.833 60.7637 264.258 60.4162L263.871 59.8367C263.562 60.0685 263.176 60.223 262.79 60.223C262.288 60.223 261.786 59.9912 261.67 59.3344H264.412V59.0256C264.451 57.828 263.756 57.0556 262.713 57.0556H262.713ZM262.713 57.7508C263.215 57.7508 263.563 58.06 263.64 58.6394H261.708C261.786 58.1372 262.133 57.7508 262.713 57.7508ZM282.837 58.9869V55.665H282.026V57.5963C281.755 57.2488 281.369 57.0556 280.867 57.0556C279.824 57.0556 279.013 57.8668 279.013 58.9869C279.013 60.107 279.824 60.9182 280.867 60.9182C281.408 60.9182 281.794 60.7251 282.026 60.3774V60.8409H282.837V58.9869ZM279.863 58.9869C279.863 58.3302 280.288 57.7895 280.983 57.7895C281.64 57.7895 282.103 58.2917 282.103 58.9869C282.103 59.6435 281.64 60.1843 280.983 60.1843C280.288 60.1455 279.863 59.6435 279.863 58.9869ZM252.747 58.9869V57.1328H251.936V57.5963C251.665 57.2488 251.279 57.0556 250.777 57.0556C249.734 57.0556 248.923 57.8668 248.923 58.9869C248.923 60.107 249.734 60.9182 250.777 60.9182C251.318 60.9182 251.704 60.7251 251.936 60.3774V60.8409H252.747V58.9869ZM249.734 58.9869C249.734 58.3302 250.159 57.7895 250.854 57.7895C251.511 57.7895 251.975 58.2917 251.975 58.9869C251.975 59.6435 251.511 60.1843 250.854 60.1843C250.159 60.1455 249.734 59.6435 249.734 58.9869Z" fill="white"/>
<path d="M257.189 38.9055C257.189 34.4635 259.275 30.5236 262.48 27.9742C260.124 26.1201 257.15 25 253.906 25C246.219 25 240 31.2188 240 38.9055C240 46.5921 246.219 52.811 253.906 52.811C257.15 52.811 260.124 51.6909 262.48 49.8367C259.275 47.326 257.189 43.3475 257.189 38.9055Z" fill="#EB001B"/>
<path d="M285 38.9055C285 46.5921 278.781 52.811 271.094 52.811C267.849 52.811 264.875 51.6909 262.519 49.8367C265.764 47.2874 267.811 43.3475 267.811 38.9055C267.811 34.4635 265.725 30.5236 262.519 27.9742C264.875 26.1201 267.849 25 271.094 25C278.781 25 285 31.2575 285 38.9055H285Z" fill="#F79E1B"/>
<path d="M43.2955 56.4545H41.5625V67.9034H41.4205L33.4659 56.4545H31.7614V71H33.5227V59.5795H33.6648L41.5909 71H43.2955V56.4545ZM56.7631 61H58.5813C58.0415 58.1875 55.6836 56.2557 52.6154 56.2557C48.8867 56.2557 46.2518 59.125 46.2518 63.7273C46.2518 68.3295 48.8654 71.1989 52.729 71.1989C56.195 71.1989 58.6665 68.8906 58.6665 65.2898V63.7273H53.1268V65.2898H56.962C56.9123 67.9034 55.1935 69.5511 52.729 69.5511C50.0302 69.5511 47.9563 67.5057 47.9563 63.7273C47.9563 59.9489 50.0302 57.9034 52.6154 57.9034C54.7177 57.9034 56.1452 59.0895 56.7631 61ZM73.2173 56.4545H71.4844V67.9034H71.3423L63.3878 56.4545H61.6832V71H63.4446V59.5795H63.5866L71.5128 71H73.2173V56.4545ZM87.2248 56.4545H85.4634L81.8271 58.8693V60.6591L85.3782 58.3011H85.4634V71H87.2248V56.4545ZM96.1523 71.1989C99.3626 71.1989 101.209 68.4787 101.209 63.7273C101.209 59.0114 99.3342 56.2557 96.1523 56.2557C92.9705 56.2557 91.0955 59.0114 91.0955 63.7273C91.0955 68.4787 92.9421 71.1989 96.1523 71.1989ZM96.1523 69.6364C94.0359 69.6364 92.8001 67.5128 92.8001 63.7273C92.8001 59.9489 94.0501 57.7898 96.1523 57.7898C98.2546 57.7898 99.5046 59.9489 99.5046 63.7273C99.5046 67.5128 98.2688 69.6364 96.1523 69.6364ZM108.652 71.1989C111.863 71.1989 113.709 68.4787 113.709 63.7273C113.709 59.0114 111.834 56.2557 108.652 56.2557C105.471 56.2557 103.596 59.0114 103.596 63.7273C103.596 68.4787 105.442 71.1989 108.652 71.1989ZM108.652 69.6364C106.536 69.6364 105.3 67.5128 105.3 63.7273C105.3 59.9489 106.55 57.7898 108.652 57.7898C110.755 57.7898 112.005 59.9489 112.005 63.7273C112.005 67.5128 110.769 69.6364 108.652 69.6364ZM118.936 69.0114H117.118L117.033 69.8068C116.827 71.7315 116.422 73.6491 116.238 74.5511H117.516C117.857 73.5852 118.581 71.3977 118.823 69.7784L118.936 69.0114ZM125.957 71.1989C129.167 71.1989 131.014 68.4787 131.014 63.7273C131.014 59.0114 129.139 56.2557 125.957 56.2557C122.775 56.2557 120.9 59.0114 120.9 63.7273C120.9 68.4787 122.747 71.1989 125.957 71.1989ZM125.957 69.6364C123.841 69.6364 122.605 67.5128 122.605 63.7273C122.605 59.9489 123.855 57.7898 125.957 57.7898C128.059 57.7898 129.309 59.9489 129.309 63.7273C129.309 67.5128 128.074 69.6364 125.957 69.6364ZM138.457 71.1989C141.667 71.1989 143.514 68.4787 143.514 63.7273C143.514 59.0114 141.639 56.2557 138.457 56.2557C135.275 56.2557 133.4 59.0114 133.4 63.7273C133.4 68.4787 135.247 71.1989 138.457 71.1989ZM138.457 69.6364C136.341 69.6364 135.105 67.5128 135.105 63.7273C135.105 59.9489 136.355 57.7898 138.457 57.7898C140.559 57.7898 141.809 59.9489 141.809 63.7273C141.809 67.5128 140.574 69.6364 138.457 69.6364ZM150.957 71.1989C154.167 71.1989 156.014 68.4787 156.014 63.7273C156.014 59.0114 154.139 56.2557 150.957 56.2557C147.775 56.2557 145.9 59.0114 145.9 63.7273C145.9 68.4787 147.747 71.1989 150.957 71.1989ZM150.957 69.6364C148.841 69.6364 147.605 67.5128 147.605 63.7273C147.605 59.9489 148.855 57.7898 150.957 57.7898C153.059 57.7898 154.309 59.9489 154.309 63.7273C154.309 67.5128 153.074 69.6364 150.957 69.6364Z" fill="white"/>
<path opacity="0.54" d="M39.5753 37.1293C39.2273 34.9517 37.522 33.679 35.3693 33.679C32.7344 33.679 30.7905 35.6527 30.7905 38.9091C30.7905 42.1655 32.7244 44.1392 35.3693 44.1392C37.6065 44.1392 39.2422 42.7372 39.5753 40.7237L38.0241 40.7188C37.7607 42.0213 36.6669 42.7372 35.3793 42.7372C33.6342 42.7372 32.3168 41.3999 32.3168 38.9091C32.3168 36.4382 33.6293 35.081 35.3842 35.081C36.6818 35.081 37.7706 35.8118 38.0241 37.1293H39.5753ZM46.1316 40.8331C46.1365 42.1307 45.1721 42.7472 44.3368 42.7472C43.4171 42.7472 42.7807 42.081 42.7807 41.0419V36.3636H41.2942V41.2209C41.2942 43.1151 42.3333 44.0994 43.7999 44.0994C44.9483 44.0994 45.7289 43.4929 46.0819 42.6776H46.1614V44H47.623V36.3636H46.1316V40.8331ZM49.6204 44H51.1069V39.3366C51.1069 38.3374 51.8775 37.6165 52.9315 37.6165C53.2397 37.6165 53.5877 37.6712 53.707 37.706V36.2841C53.5579 36.2642 53.2646 36.2493 53.0756 36.2493C52.1808 36.2493 51.4151 36.7564 51.1367 37.5767H51.0572V36.3636H49.6204V44ZM54.9934 44H56.4799V39.3366C56.4799 38.3374 57.2505 37.6165 58.3045 37.6165C58.6127 37.6165 58.9608 37.6712 59.0801 37.706V36.2841C58.9309 36.2642 58.6376 36.2493 58.4487 36.2493C57.5538 36.2493 56.7882 36.7564 56.5098 37.5767H56.4302V36.3636H54.9934V44ZM63.3842 44.1541C65.0497 44.1541 66.228 43.3338 66.5661 42.0909L65.1591 41.8374C64.8906 42.5582 64.2443 42.9261 63.3991 42.9261C62.1264 42.9261 61.2713 42.1009 61.2315 40.6293H66.6605V40.1023C66.6605 37.343 65.0099 36.2642 63.2798 36.2642C61.152 36.2642 59.75 37.8849 59.75 40.2315C59.75 42.603 61.1321 44.1541 63.3842 44.1541ZM61.2365 39.5156C61.2962 38.4318 62.0817 37.4922 63.2898 37.4922C64.4432 37.4922 65.1989 38.3473 65.2038 39.5156H61.2365ZM69.7963 39.4659C69.7963 38.2479 70.5421 37.5518 71.5762 37.5518C72.5854 37.5518 73.1969 38.2131 73.1969 39.3217V44H74.6834V39.1428C74.6834 37.2536 73.6444 36.2642 72.0833 36.2642C70.9348 36.2642 70.1841 36.7962 69.8311 37.6065H69.7367V36.3636H68.3098V44H69.7963V39.4659ZM80.2417 36.3636H78.6756V34.5341H77.1891V36.3636H76.0705V37.5568H77.1891V42.0661C77.1841 43.4531 78.2431 44.1243 79.4164 44.0994C79.8887 44.0945 80.2069 44.005 80.3809 43.9403L80.1124 42.7124C80.013 42.7322 79.829 42.777 79.5904 42.777C79.1081 42.777 78.6756 42.6179 78.6756 41.7578V37.5568H80.2417V36.3636ZM85.7104 44H89.6131C91.9796 44 93.0485 42.8217 93.0485 41.2607C93.0485 39.6847 91.9448 38.7947 90.9355 38.7401V38.6406C91.8702 38.402 92.6507 37.7656 92.6507 36.4929C92.6507 34.9865 91.6067 33.8182 89.4391 33.8182H85.7104V44ZM87.2466 42.6825V39.4212H89.5186C90.7516 39.4212 91.5222 40.2166 91.5222 41.1861C91.5222 42.0412 90.9405 42.6825 89.464 42.6825H87.2466ZM87.2466 38.223V35.1257H89.3446C90.5627 35.1257 91.1444 35.767 91.1444 36.6122C91.1444 37.5966 90.339 38.223 89.3049 38.223H87.2466ZM96.9735 44.169C98.2363 44.169 98.9473 43.5277 99.2306 42.956H99.2903V44H100.742V38.929C100.742 36.7067 98.992 36.2642 97.7789 36.2642C96.3968 36.2642 95.1241 36.821 94.627 38.2131L96.024 38.5312C96.2427 37.9893 96.7995 37.4673 97.7988 37.4673C98.7583 37.4673 99.2505 37.9695 99.2505 38.8345V38.8693C99.2505 39.4112 98.6937 39.4013 97.3216 39.5604C95.8748 39.7294 94.3933 40.1072 94.3933 41.8423C94.3933 43.3438 95.5218 44.169 96.9735 44.169ZM97.2967 42.9759C96.4565 42.9759 95.85 42.598 95.85 41.8622C95.85 41.0668 96.5559 40.7834 97.416 40.669C97.8983 40.6044 99.0417 40.4751 99.2555 40.2614V41.2457C99.2555 42.1506 98.5346 42.9759 97.2967 42.9759ZM104.208 33.8182H102.722V44H104.208V33.8182ZM108.431 44.169C109.693 44.169 110.404 43.5277 110.688 42.956H110.747V44H112.199V38.929C112.199 36.7067 110.449 36.2642 109.236 36.2642C107.854 36.2642 106.581 36.821 106.084 38.2131L107.481 38.5312C107.7 37.9893 108.257 37.4673 109.256 37.4673C110.215 37.4673 110.708 37.9695 110.708 38.8345V38.8693C110.708 39.4112 110.151 39.4013 108.779 39.5604C107.332 39.7294 105.85 40.1072 105.85 41.8423C105.85 43.3438 106.979 44.169 108.431 44.169ZM108.754 42.9759C107.914 42.9759 107.307 42.598 107.307 41.8622C107.307 41.0668 108.013 40.7834 108.873 40.669C109.355 40.6044 110.499 40.4751 110.713 40.2614V41.2457C110.713 42.1506 109.992 42.9759 108.754 42.9759ZM115.665 39.4659C115.665 38.2479 116.411 37.5518 117.445 37.5518C118.455 37.5518 119.066 38.2131 119.066 39.3217V44H120.553V39.1428C120.553 37.2536 119.513 36.2642 117.952 36.2642C116.804 36.2642 116.053 36.7962 115.7 37.6065H115.606V36.3636H114.179V44H115.665V39.4659ZM125.763 44.1541C127.567 44.1541 128.736 43.0703 128.9 41.5838H127.453C127.264 42.4091 126.623 42.8963 125.773 42.8963C124.515 42.8963 123.705 41.8473 123.705 40.1818C123.705 38.5462 124.53 37.517 125.773 37.517C126.717 37.517 127.294 38.1136 127.453 38.8295H128.9C128.741 37.2884 127.483 36.2642 125.748 36.2642C123.595 36.2642 122.203 37.8849 122.203 40.2166C122.203 42.5185 123.545 44.1541 125.763 44.1541ZM133.781 44.1541C135.446 44.1541 136.624 43.3338 136.963 42.0909L135.556 41.8374C135.287 42.5582 134.641 42.9261 133.796 42.9261C132.523 42.9261 131.668 42.1009 131.628 40.6293H137.057V40.1023C137.057 37.343 135.406 36.2642 133.676 36.2642C131.548 36.2642 130.146 37.8849 130.146 40.2315C130.146 42.603 131.529 44.1541 133.781 44.1541ZM131.633 39.5156C131.693 38.4318 132.478 37.4922 133.686 37.4922C134.84 37.4922 135.595 38.3473 135.6 39.5156H131.633Z" fill="white"/>
</svg>
