<svg width="26" height="26" viewBox="0 0 26 26" fill="none" xmlns="http://www.w3.org/2000/svg">
<path d="M13 1.625C6.71836 1.625 1.625 6.71836 1.625 13C1.625 19.2816 6.71836 24.375 13 24.375C19.2816 24.375 24.375 19.2816 24.375 13C24.375 6.71836 19.2816 1.625 13 1.625ZM17.4814 16.4963L16.7553 17.4865C16.7395 17.5081 16.7196 17.5263 16.6967 17.5402C16.6739 17.554 16.6485 17.5632 16.6221 17.5672C16.5956 17.5712 16.5687 17.57 16.5427 17.5635C16.5168 17.5571 16.4924 17.5456 16.4709 17.5297L12.2713 14.4676C12.2451 14.4488 12.2239 14.424 12.2093 14.3953C12.1947 14.3666 12.1872 14.3347 12.1875 14.3025V7.3125C12.1875 7.20078 12.2789 7.10938 12.3906 7.10938H13.6119C13.7236 7.10938 13.815 7.20078 13.815 7.3125V13.5967L17.4357 16.2145C17.5271 16.2779 17.5475 16.4049 17.4814 16.4963Z" fill="#2094E9"/>
</svg>
