<svg width="24" height="24" viewBox="0 0 24 24" fill="none" xmlns="http://www.w3.org/2000/svg">
<path d="M10.7143 12C10.7143 12.341 10.8498 12.668 11.0909 12.9091C11.332 13.1503 11.659 13.2857 12 13.2857C12.341 13.2857 12.668 13.1503 12.9091 12.9091C13.1502 12.668 13.2857 12.341 13.2857 12C13.2857 11.659 13.1502 11.332 12.9091 11.0909C12.668 10.8497 12.341 10.7143 12 10.7143C11.659 10.7143 11.332 10.8497 11.0909 11.0909C10.8498 11.332 10.7143 11.659 10.7143 12ZM16.0714 12C16.0714 12.341 16.2068 12.668 16.448 12.9091C16.6891 13.1503 17.0161 13.2857 17.3571 13.2857C17.6981 13.2857 18.0251 13.1503 18.2662 12.9091C18.5073 12.668 18.6428 12.341 18.6428 12C18.6428 11.659 18.5073 11.332 18.2662 11.0909C18.0251 10.8497 17.6981 10.7143 17.3571 10.7143C17.0161 10.7143 16.6891 10.8497 16.448 11.0909C16.2068 11.332 16.0714 11.659 16.0714 12ZM5.35723 12C5.35723 12.341 5.49268 12.668 5.7338 12.9091C5.97492 13.1503 6.30194 13.2857 6.64293 13.2857C6.98391 13.2857 7.31094 13.1503 7.55205 12.9091C7.79317 12.668 7.92862 12.341 7.92862 12C7.92862 11.659 7.79317 11.332 7.55205 11.0909C7.31094 10.8497 6.98391 10.7143 6.64293 10.7143C6.30194 10.7143 5.97492 10.8497 5.7338 11.0909C5.49268 11.332 5.35723 11.659 5.35723 12ZM23.0677 7.35C22.4624 5.91161 21.5945 4.62054 20.4883 3.51161C19.3898 2.4091 18.0857 1.53274 16.6499 0.932143C15.1767 0.313393 13.6125 0 12 0H11.9464C10.3232 0.00803571 8.75094 0.329464 7.27238 0.961607C5.84889 1.56836 4.55705 2.44628 3.46886 3.54643C2.37334 4.65268 1.51353 5.93839 0.918891 7.37143C0.302827 8.85536 -0.00788365 10.433 0.000151961 12.0562C0.00924091 13.9164 0.449321 15.7492 1.28585 17.4107V21.4821C1.28585 21.8089 1.41566 22.1223 1.64673 22.3534C1.8778 22.5845 2.1912 22.7143 2.51798 22.7143H6.59203C8.25352 23.5508 10.0863 23.9909 11.9464 24H12.0027C13.6071 24 15.1634 23.6893 16.6285 23.0813C18.0571 22.4878 19.3562 21.6217 20.4535 20.5312C21.5597 19.4357 22.4302 18.1554 23.0383 16.7277C23.6704 15.2491 23.9918 13.6768 23.9999 12.0536C24.0079 10.4223 23.6918 8.83929 23.0677 7.35ZM19.0204 19.0821C17.1428 20.9411 14.6518 21.9643 12 21.9643H11.9545C10.3393 21.9563 8.73486 21.5545 7.31792 20.7991L7.09292 20.6786H3.32154V16.9071L3.201 16.6821C2.44566 15.2652 2.04388 13.6607 2.03584 12.0455C2.02513 9.375 3.04565 6.86786 4.91795 4.97946C6.78757 3.09107 9.28664 2.04643 11.9571 2.03571H12.0027C13.3419 2.03571 14.641 2.29554 15.8651 2.80982C17.0598 3.31071 18.1312 4.03125 19.0526 4.95268C19.9713 5.87143 20.6945 6.94554 21.1954 8.14018C21.7151 9.37768 21.9749 10.6902 21.9695 12.0455C21.9534 14.7134 20.9061 17.2125 19.0204 19.0821Z" fill="#2094E9"/>
</svg>
