<svg width="24" height="23" viewBox="0 0 24 23" fill="none" xmlns="http://www.w3.org/2000/svg">
<path d="M22.1606 17.9938L17.6469 13.4872C17.1081 12.9493 16.2316 12.9493 15.6928 13.4872L14.519 14.6591C14.1513 15.0263 14.035 15.5506 14.1693 16.0176L13.7265 16.4598L13.7261 16.4601C13.4116 16.7745 11.453 16.2921 9.0855 13.9282C6.71834 11.5647 6.23505 9.60945 6.54953 9.29486L6.54962 9.29477L6.99288 8.85224C7.118 8.88814 7.24712 8.90646 7.37634 8.90646C7.73019 8.90646 8.084 8.77201 8.35345 8.50307L9.52718 7.33114C10.0659 6.7932 10.0659 5.91799 9.52718 5.38001L5.01354 0.873266C4.75259 0.612719 4.40557 0.469238 4.03651 0.469238C3.66736 0.469238 3.32048 0.612809 3.05948 0.873266L1.88567 2.04528C1.51791 2.41247 1.40165 2.9368 1.53595 3.40376C1.53595 3.40376 1.16055 3.78218 1.14187 3.80608C-0.106764 5.19187 -0.341033 7.37368 0.486759 9.98225C1.29736 12.5364 3.04482 15.2421 5.4073 17.6008C7.76969 19.9595 10.4796 21.7043 13.0376 22.5138C14.0652 22.8389 15.0265 22.9999 15.8995 22.9999C17.3308 22.9999 18.5241 22.5665 19.3796 21.7125L19.6258 21.4666C19.7491 21.502 19.8779 21.5211 20.0097 21.5211C20.3789 21.5211 20.7258 21.3775 20.9867 21.117L22.1605 19.945C22.6993 19.4071 22.6993 18.5318 22.1606 17.9938ZM4.03651 1.84879L8.5502 6.35558L7.3771 7.52813L7.37647 7.5275L7.3596 7.51065L5.11963 5.27413L2.86274 3.0208L4.03651 1.84879ZM18.4026 20.7369L18.4023 20.7371C17.4083 21.7295 15.6513 21.8934 13.4551 21.1985C11.1042 20.4547 8.59312 18.8305 6.38446 16.6252C4.17571 14.4199 2.54902 11.9127 1.8041 9.56542C1.10809 7.37247 1.27226 5.61814 2.26638 4.6255L2.26647 4.62541L2.3911 4.50098L5.89397 7.99841L5.57269 8.3192L5.57201 8.31996C4.24095 9.65064 5.8403 12.6391 8.10852 14.9038C9.80622 16.5989 11.91 17.9199 13.4198 17.9199C13.9274 17.9199 14.368 17.7705 14.7033 17.4357L14.7036 17.4353L15.0246 17.1149L18.5274 20.6123L18.4026 20.7369ZM20.0098 20.1415L15.4961 15.6347L16.6698 14.4628L21.1835 18.9695C21.1835 18.9695 20.0102 20.1419 20.0098 20.1415Z" fill="#2094E9"/>
<path d="M22.1606 17.9938L17.6469 13.4872C17.1081 12.9493 16.2316 12.9493 15.6928 13.4872L14.519 14.6591C14.1513 15.0263 14.035 15.5506 14.1693 16.0176L13.7265 16.4598L13.7261 16.4601C13.4116 16.7745 11.453 16.2921 9.0855 13.9282C6.71834 11.5647 6.23505 9.60945 6.54953 9.29486L6.54962 9.29477L6.99288 8.85224C7.118 8.88814 7.24712 8.90646 7.37634 8.90646C7.73019 8.90646 8.084 8.77201 8.35345 8.50307L9.52718 7.33114C10.0659 6.7932 10.0659 5.91799 9.52718 5.38001L5.01354 0.873266C4.75259 0.612719 4.40557 0.469238 4.03651 0.469238C3.66736 0.469238 3.32048 0.612809 3.05948 0.873266L1.88567 2.04528C1.51791 2.41247 1.40165 2.9368 1.53595 3.40376C1.53595 3.40376 1.16055 3.78218 1.14187 3.80608C-0.106764 5.19187 -0.341033 7.37368 0.486759 9.98225C1.29736 12.5364 3.04482 15.2421 5.4073 17.6008C7.76969 19.9595 10.4796 21.7043 13.0376 22.5138C14.0652 22.8389 15.0265 22.9999 15.8995 22.9999C17.3308 22.9999 18.5241 22.5665 19.3796 21.7125L19.6258 21.4666C19.7491 21.502 19.8779 21.5211 20.0097 21.5211C20.3789 21.5211 20.7258 21.3775 20.9867 21.117L22.1605 19.945C22.6993 19.4071 22.6993 18.5318 22.1606 17.9938ZM4.03651 1.84879L8.5502 6.35558L7.3771 7.52813L7.37647 7.5275L7.3596 7.51065L5.11963 5.27413L2.86274 3.0208L4.03651 1.84879ZM18.4026 20.7369L18.4023 20.7371C17.4083 21.7295 15.6513 21.8934 13.4551 21.1985C11.1042 20.4547 8.59312 18.8305 6.38446 16.6252C4.17571 14.4199 2.54902 11.9127 1.8041 9.56542C1.10809 7.37247 1.27226 5.61814 2.26638 4.6255L2.26647 4.62541L2.3911 4.50098L5.89397 7.99841L5.57269 8.3192L5.57201 8.31996C4.24095 9.65064 5.8403 12.6391 8.10852 14.9038C9.80622 16.5989 11.91 17.9199 13.4198 17.9199C13.9274 17.9199 14.368 17.7705 14.7033 17.4357L14.7036 17.4353L15.0246 17.1149L18.5274 20.6123L18.4026 20.7369ZM20.0098 20.1415L15.4961 15.6347L16.6698 14.4628L21.1835 18.9695C21.1835 18.9695 20.0102 20.1419 20.0098 20.1415Z" stroke="#2094E9"/>
<path d="M17.4937 5.53367C16.1795 4.22155 14.4324 3.49898 12.5742 3.49902C12.1926 3.49902 11.8833 3.80786 11.8833 4.18884C11.8833 4.56983 12.1927 4.87866 12.5742 4.87866C14.0634 4.87857 15.4635 5.45771 16.5167 6.50919C17.5697 7.56063 18.1496 8.95856 18.1496 10.4454C18.1496 10.8264 18.4589 11.1353 18.8405 11.1353C19.222 11.1353 19.5313 10.8265 19.5313 10.4456C19.5314 8.59015 18.8077 6.84579 17.4937 5.53367Z" fill="#2094E9"/>
<path d="M17.4937 5.53367C16.1795 4.22155 14.4324 3.49898 12.5742 3.49902C12.1926 3.49902 11.8833 3.80786 11.8833 4.18884C11.8833 4.56983 12.1927 4.87866 12.5742 4.87866C14.0634 4.87857 15.4635 5.45771 16.5167 6.50919C17.5697 7.56063 18.1496 8.95856 18.1496 10.4454C18.1496 10.8264 18.4589 11.1353 18.8405 11.1353C19.222 11.1353 19.5313 10.8265 19.5313 10.4456C19.5314 8.59015 18.8077 6.84579 17.4937 5.53367Z" stroke="#2094E9"/>
<path d="M19.9719 3.05949C17.9958 1.08648 15.3686 -8.98382e-05 12.5742 0C12.1926 0 11.8833 0.308883 11.8833 0.68982C11.8833 1.0708 12.1927 1.37964 12.5742 1.37964C14.9995 1.37955 17.2797 2.32264 18.9948 4.03502C20.7098 5.74735 21.6543 8.02404 21.6542 10.4456C21.6542 10.8266 21.9636 11.1355 22.3451 11.1355C22.7267 11.1355 23.036 10.8266 23.036 10.4457C23.0361 7.65554 21.9479 5.03246 19.9719 3.05949Z" fill="#2094E9"/>
<path d="M19.9719 3.05949C17.9958 1.08648 15.3686 -8.98382e-05 12.5742 0C12.1926 0 11.8833 0.308883 11.8833 0.68982C11.8833 1.0708 12.1927 1.37964 12.5742 1.37964C14.9995 1.37955 17.2797 2.32264 18.9948 4.03502C20.7098 5.74735 21.6543 8.02404 21.6542 10.4456C21.6542 10.8266 21.9636 11.1355 22.3451 11.1355C22.7267 11.1355 23.036 10.8266 23.036 10.4457C23.0361 7.65554 21.9479 5.03246 19.9719 3.05949Z" stroke="#2094E9"/>
<path d="M15.0154 8.00776C14.3538 7.34713 13.5098 6.99805 12.5744 6.99805H12.5741C12.1925 6.99814 11.8832 7.30693 11.8833 7.68796C11.8834 8.06894 12.1927 8.37778 12.5743 8.37769H12.5745C13.1434 8.37769 13.636 8.58145 14.0385 8.98328C14.4352 9.37949 14.645 9.88509 14.6449 10.4452C14.6448 10.8262 14.9542 11.135 15.3357 11.1351H15.3358C15.7174 11.1351 16.0266 10.8263 16.0267 10.4454C16.0267 9.51138 15.6771 8.66847 15.0154 8.00776Z" fill="#2094E9"/>
<path d="M15.0154 8.00776C14.3538 7.34713 13.5098 6.99805 12.5744 6.99805H12.5741C12.1925 6.99814 11.8832 7.30693 11.8833 7.68796C11.8834 8.06894 12.1927 8.37778 12.5743 8.37769H12.5745C13.1434 8.37769 13.636 8.58145 14.0385 8.98328C14.4352 9.37949 14.645 9.88509 14.6449 10.4452C14.6448 10.8262 14.9542 11.135 15.3357 11.1351H15.3358C15.7174 11.1351 16.0266 10.8263 16.0267 10.4454C16.0267 9.51138 15.6771 8.66847 15.0154 8.00776Z" stroke="#2094E9"/>
</svg>
